<svg xmlns="http://www.w3.org/2000/svg" xmlns:xlink="http://www.w3.org/1999/xlink" viewBox="0,0,256,256" width="64px" height="64px" fill-rule="nonzero"><g fill="none" fill-rule="nonzero" stroke="none" stroke-width="1" stroke-linecap="butt" stroke-linejoin="miter" stroke-miterlimit="10" stroke-dasharray="" stroke-dashoffset="0" font-family="none" font-weight="none" font-size="none" text-anchor="none" style="mix-blend-mode: normal"><g transform="scale(4,4)"><path d="M5.015,7.244l5.466,45.246c0.194,1.603 1.337,2.935 2.9,3.379l17.535,4.977c0.709,0.201 1.46,0.206 2.172,0.013l18.442,-4.996c1.614,-0.437 2.789,-1.817 2.955,-3.471l4.549,-45.187c0.119,-1.181 -0.814,-2.205 -2.009,-2.205h-50.006c-1.21,0 -2.149,1.051 -2.004,2.244z" fill-opacity="0.78039" fill="#dd02ff"></path><path d="M52.357,10h-20.357v46c0.298,0.002 0.595,-0.039 0.885,-0.123l15.002,-4.371c1.313,-0.382 2.269,-1.59 2.404,-3.037l3.701,-36.539c0.096,-1.034 -0.663,-1.93 -1.635,-1.93z" fill="#9200a8"></path><path d="M32.025,62c-0.465,0 -0.93,-0.064 -1.382,-0.191l-17.536,-4.978c-1.956,-0.556 -3.377,-2.213 -3.619,-4.221l-5.467,-45.246c-0.103,-0.85 0.165,-1.705 0.733,-2.347c0.574,-0.646 1.399,-1.017 2.265,-1.017h50.007c0.854,0 1.672,0.363 2.244,0.995c0.567,0.628 0.845,1.47 0.76,2.311l-4.55,45.186c-0.206,2.051 -1.688,3.794 -3.688,4.336l-18.442,4.996c-0.434,0.117 -0.879,0.176 -1.325,0.176zM7.019,6c-0.298,0 -0.57,0.122 -0.767,0.344c-0.192,0.217 -0.279,0.494 -0.244,0.78v0l5.467,45.246c0.146,1.206 1.001,2.202 2.18,2.537l17.535,4.977c0.533,0.152 1.103,0.155 1.637,0.009l18.442,-4.996c1.205,-0.326 2.098,-1.374 2.222,-2.605l4.549,-45.187c0.028,-0.284 -0.062,-0.557 -0.253,-0.769c-0.197,-0.217 -0.468,-0.336 -0.762,-0.336z" fill="#49dce3"></path><path d="M57,12c-0.553,0 -1,-0.448 -1,-1v-2c0,-0.552 0.447,-1 1,-1c0.553,0 1,0.448 1,1v2c0,0.552 -0.447,1 -1,1zM52,12c-0.553,0 -1,-0.448 -1,-1v-2c0,-0.552 0.447,-1 1,-1c0.553,0 1,0.448 1,1v2c0,0.552 -0.447,1 -1,1zM47,12c-0.553,0 -1,-0.448 -1,-1v-2c0,-0.552 0.447,-1 1,-1c0.553,0 1,0.448 1,1v2c0,0.552 -0.447,1 -1,1zM42,12c-0.553,0 -1,-0.448 -1,-1v-2c0,-0.552 0.447,-1 1,-1c0.553,0 1,0.448 1,1v2c0,0.552 -0.447,1 -1,1zM37,12c-0.553,0 -1,-0.448 -1,-1v-2c0,-0.552 0.447,-1 1,-1c0.553,0 1,0.448 1,1v2c0,0.552 -0.447,1 -1,1zM32,12c-0.553,0 -1,-0.448 -1,-1v-2c0,-0.552 0.447,-1 1,-1c0.553,0 1,0.448 1,1v2c0,0.552 -0.447,1 -1,1zM27,12c-0.553,0 -1,-0.448 -1,-1v-2c0,-0.552 0.447,-1 1,-1c0.553,0 1,0.448 1,1v2c0,0.552 -0.447,1 -1,1zM22,12c-0.553,0 -1,-0.448 -1,-1v-2c0,-0.552 0.447,-1 1,-1c0.553,0 1,0.448 1,1v2c0,0.552 -0.447,1 -1,1zM17,12c-0.553,0 -1,-0.448 -1,-1v-2c0,-0.552 0.447,-1 1,-1c0.553,0 1,0.448 1,1v2c0,0.552 -0.447,1 -1,1zM12,12c-0.553,0 -1,-0.448 -1,-1v-2c0,-0.552 0.447,-1 1,-1c0.553,0 1,0.448 1,1v2c0,0.552 -0.447,1 -1,1zM7,12c-0.553,0 -1,-0.448 -1,-1v-2c0,-0.552 0.447,-1 1,-1c0.553,0 1,0.448 1,1v2c0,0.552 -0.447,1 -1,1z" fill="#49dce3"></path><path d="M24,19c0,8.333 0,16.667 0,25c-3,-0.667 -6,-1.333 -9,-2c0.205,2 0.41,4 0.615,6c4.462,1.272 8.923,2.543 13.385,3.815v-32.815c-1.667,0 -3.333,0 -5,0z" fill="#dd02ff"></path><path d="M49.821,24.048l0.435,-5.048c-5.085,0 -10.171,0 -15.256,0c0,7.333 0,14.667 0,22c2.982,-0.689 5.964,-1.378 8.946,-2.066l-0.316,4.733c-2.876,0.777 -5.753,1.555 -8.63,2.333c0,2 0,4 0,6c4.244,-1.219 8.488,-2.437 12.732,-3.656l1.33,-15.461c-3.02,0.372 -6.041,0.745 -9.062,1.117c0,-3.333 0,-6.667 0,-10c3.274,0.016 6.547,0.032 9.821,0.048z" fill="#dd02ff"></path><path d="M29,52.815c-0.092,0 -0.184,-0.013 -0.274,-0.038l-13.385,-3.815c-0.394,-0.112 -0.679,-0.453 -0.721,-0.86l-0.615,-6c-0.032,-0.32 0.091,-0.636 0.33,-0.849c0.241,-0.214 0.567,-0.299 0.882,-0.229l7.783,1.729v-23.753c0,-0.552 0.447,-1 1,-1h5c0.553,0 1,0.448 1,1v32.815c0,0.313 -0.147,0.609 -0.397,0.798c-0.176,0.133 -0.388,0.202 -0.603,0.202zM16.541,47.224l11.459,3.266v-30.49h-3v24c0,0.303 -0.138,0.59 -0.374,0.78c-0.237,0.19 -0.546,0.262 -0.843,0.196l-7.647,-1.699z" fill="#49dce3"></path><path d="M35,53c-0.215,0 -0.426,-0.069 -0.602,-0.201c-0.251,-0.189 -0.398,-0.485 -0.398,-0.799v-6c0,-0.452 0.303,-0.848 0.739,-0.965l7.94,-2.147l0.179,-2.677l-7.634,1.763c-0.293,0.071 -0.607,-0.001 -0.847,-0.191c-0.24,-0.19 -0.377,-0.478 -0.377,-0.783v-22c0,-0.552 0.447,-1 1,-1h15.257c0.28,0 0.548,0.118 0.737,0.324c0.189,0.207 0.283,0.483 0.259,0.762l-0.436,5.048c-0.044,0.519 -0.521,0.946 -1.001,0.914l-8.816,-0.043v7.864l7.94,-0.979c0.296,-0.036 0.599,0.063 0.816,0.272c0.217,0.209 0.328,0.505 0.302,0.806l-1.33,15.461c-0.035,0.413 -0.322,0.761 -0.72,0.875l-12.732,3.655c-0.09,0.028 -0.183,0.041 -0.276,0.041zM36,46.766v3.907l10.795,-3.1l1.165,-13.546l-7.838,0.966c-0.281,0.034 -0.569,-0.054 -0.784,-0.244c-0.215,-0.19 -0.338,-0.462 -0.338,-0.749v-10c0,-0.266 0.106,-0.521 0.295,-0.709c0.189,-0.188 0.413,-0.286 0.71,-0.291l8.899,0.044l0.263,-3.044h-13.167v19.743l7.722,-1.783c0.307,-0.073 0.632,0.007 0.873,0.213c0.241,0.205 0.37,0.512 0.35,0.828l-0.316,4.733c-0.028,0.426 -0.325,0.787 -0.737,0.898z" fill="#49dce3"></path></g></g></svg>