<svg xmlns="http://www.w3.org/2000/svg" xmlns:xlink="http://www.w3.org/1999/xlink" viewBox="0,0,256,256" width="96px" height="96px" fill-rule="nonzero"><g fill="none" fill-rule="nonzero" stroke="none" stroke-width="1" stroke-linecap="butt" stroke-linejoin="miter" stroke-miterlimit="10" stroke-dasharray="" stroke-dashoffset="0" font-family="none" font-weight="none" font-size="none" text-anchor="none" style="mix-blend-mode: normal"><g transform="scale(5.33333,5.33333)"><path d="M17.204,19.122l-4.907,2.715c-0.184,0.101 -0.297,0.289 -0.297,0.492v5.433c0,0.203 0.113,0.39 0.297,0.492l4.908,2.717c0.183,0.101 0.41,0.101 0.593,0l4.907,-2.717c0.182,-0.102 0.295,-0.289 0.295,-0.492v-5.433c0,-0.203 -0.113,-0.39 -0.297,-0.492l-4.906,-2.715c-0.092,-0.051 -0.195,-0.076 -0.297,-0.076c-0.103,0 -0.205,0.025 -0.297,0.076M42.451,24.013l-0.818,0.452c-0.031,0.017 -0.049,0.048 -0.049,0.082v0.906c0,0.034 0.019,0.065 0.049,0.082l0.818,0.453c0.031,0.017 0.068,0.017 0.099,0l0.818,-0.453c0.03,-0.017 0.049,-0.048 0.049,-0.082v-0.906c0,-0.034 -0.019,-0.065 -0.05,-0.082l-0.818,-0.452c-0.015,-0.009 -0.032,-0.013 -0.049,-0.013c-0.017,0 -0.034,0.004 -0.049,0.013" fill="#49dce3"></path><path d="M35.751,13.364l-2.389,-1.333c-0.075,-0.042 -0.167,-0.041 -0.241,0.003c-0.074,0.044 -0.12,0.123 -0.12,0.209l-0.001,8.052l-2.203,-1.219c-0.092,-0.051 -0.195,-0.076 -0.297,-0.076c-0.102,0 -0.205,0.025 -0.297,0.076h0.001l-4.907,2.715c-0.184,0.101 -0.297,0.289 -0.297,0.491v5.433c0,0.203 0.113,0.39 0.297,0.492l4.908,2.717c0.183,0.101 0.41,0.101 0.593,0l4.907,-2.717c0.182,-0.101 0.295,-0.289 0.295,-0.492v-13.927c0,-0.176 -0.096,-0.338 -0.249,-0.424zM32.866,26.458l-2.23,1.235c-0.083,0.046 -0.186,0.046 -0.269,0l-2.231,-1.235c-0.085,-0.046 -0.136,-0.132 -0.136,-0.224v-2.47c0,-0.092 0.051,-0.177 0.135,-0.224l2.231,-1.234h-0.001c0.042,-0.023 0.088,-0.034 0.135,-0.034c0.047,0 0.093,0.012 0.135,0.034l2.23,1.234c0.084,0.047 0.135,0.133 0.135,0.225v2.47c0,0.091 -0.051,0.177 -0.134,0.223z" fill="#dd02ff"></path><path d="M17.204,19.122l-5.204,8.64c0,0.203 0.113,0.39 0.297,0.492l4.908,2.717c0.183,0.101 0.41,0.101 0.593,0l5.202,-8.642c0,-0.203 -0.113,-0.39 -0.297,-0.492l-4.906,-2.715c-0.092,-0.051 -0.195,-0.076 -0.297,-0.076c-0.103,0 -0.205,0.025 -0.297,0.076" fill="#dd02ff"></path><path d="M17.204,19.122l-4.907,2.715c-0.184,0.101 -0.297,0.289 -0.297,0.492l5.204,8.642c0.183,0.101 0.41,0.101 0.593,0l4.907,-2.717c0.183,-0.102 0.296,-0.289 0.296,-0.492l-5.203,-8.64c-0.092,-0.051 -0.195,-0.076 -0.297,-0.076c-0.103,0 -0.205,0.025 -0.297,0.076" fill="#00c0ca"></path><path d="M47.703,21.791l-4.906,-2.715c-0.092,-0.051 -0.195,-0.076 -0.297,-0.076c-0.102,0 -0.205,0.025 -0.297,0.076h0.001l-4.907,2.715c-0.183,0.101 -0.297,0.293 -0.297,0.503v5.411c0,0.209 0.114,0.402 0.297,0.503l4.908,2.717c0.184,0.102 0.409,0.102 0.593,0l2.263,-1.253c0.207,-0.115 0.206,-0.412 -0.002,-0.526l-4.924,-2.687c-0.083,-0.047 -0.135,-0.134 -0.135,-0.228v-2.466c0,-0.092 0.05,-0.177 0.13,-0.221l2.235,-1.236h-0.001c0.042,-0.023 0.088,-0.034 0.135,-0.034c0.047,0 0.093,0.012 0.135,0.034l2.235,1.237c0.08,0.044 0.13,0.129 0.13,0.221v2.012c0,0.086 0.046,0.166 0.121,0.209c0.075,0.042 0.167,0.042 0.242,-0.001l2.398,-1.393c0.148,-0.086 0.24,-0.245 0.24,-0.417v-1.88c0,-0.211 -0.114,-0.404 -0.297,-0.505zM10.703,21.791l-4.906,-2.715c-0.092,-0.051 -0.195,-0.076 -0.297,-0.076c-0.102,0 -0.205,0.025 -0.297,0.076h0.001l-4.907,2.715c-0.183,0.101 -0.297,0.293 -0.297,0.503v7.465c0,0.086 0.046,0.166 0.121,0.209c0.075,0.042 0.167,0.042 0.242,-0.001l2.398,-1.393c0.148,-0.086 0.239,-0.245 0.239,-0.417v-4.393c0,-0.092 0.05,-0.177 0.13,-0.221l2.235,-1.236v0c0.042,-0.023 0.088,-0.034 0.135,-0.034c0.047,0 0.093,0.012 0.135,0.034l2.235,1.237c0.08,0.044 0.13,0.129 0.13,0.221v4.393c0,0.172 0.091,0.331 0.24,0.417l2.398,1.393c0.075,0.043 0.167,0.043 0.242,0.001c0.074,-0.044 0.12,-0.124 0.12,-0.21v-7.464c0,-0.21 -0.114,-0.403 -0.297,-0.504z" fill="#dd02ff"></path></g></g></svg>